<mxfile host="65bd71144e">
    <diagram id="H5MZyoHS21Ct8FjlYHuC" name="liveDb">
        <mxGraphModel dx="1280" dy="189" grid="1" gridSize="10" guides="1" tooltips="1" connect="1" arrows="1" fold="1" page="1" pageScale="1" pageWidth="850" pageHeight="1100" math="0" shadow="0">
            <root>
                <mxCell id="0"/>
                <mxCell id="1" parent="0"/>
                <mxCell id="2" value="User" style="shape=table;startSize=30;container=1;collapsible=1;childLayout=tableLayout;fixedRows=1;rowLines=0;fontStyle=1;align=center;resizeLast=1;" parent="1" vertex="1">
                    <mxGeometry x="-60" y="110" width="140" height="120" as="geometry"/>
                </mxCell>
                <mxCell id="3" value="" style="shape=partialRectangle;collapsible=0;dropTarget=0;pointerEvents=0;fillColor=#008a00;top=0;left=0;bottom=1;right=0;points=[[0,0.5],[1,0.5]];portConstraint=eastwest;strokeColor=#005700;fontColor=#ffffff;" parent="2" vertex="1">
                    <mxGeometry y="30" width="140" height="20" as="geometry"/>
                </mxCell>
                <mxCell id="4" value="PK" style="shape=partialRectangle;connectable=0;fillColor=#008a00;top=0;left=0;bottom=0;right=0;fontStyle=1;overflow=hidden;strokeColor=#005700;fontColor=#ffffff;" parent="3" vertex="1">
                    <mxGeometry width="30" height="20" as="geometry"/>
                </mxCell>
                <mxCell id="5" value="userId" style="shape=partialRectangle;connectable=0;fillColor=#008a00;top=0;left=0;bottom=0;right=0;align=left;spacingLeft=6;fontStyle=5;overflow=hidden;strokeColor=#005700;fontColor=#ffffff;" parent="3" vertex="1">
                    <mxGeometry x="30" width="110" height="20" as="geometry"/>
                </mxCell>
                <mxCell id="6" value="" style="shape=partialRectangle;collapsible=0;dropTarget=0;pointerEvents=0;fillColor=#008a00;top=0;left=0;bottom=0;right=0;points=[[0,0.5],[1,0.5]];portConstraint=eastwest;strokeColor=#005700;fontColor=#ffffff;" parent="2" vertex="1">
                    <mxGeometry y="50" width="140" height="20" as="geometry"/>
                </mxCell>
                <mxCell id="7" value="" style="shape=partialRectangle;connectable=0;fillColor=#008a00;top=0;left=0;bottom=0;right=0;editable=1;overflow=hidden;strokeColor=#005700;fontColor=#ffffff;" parent="6" vertex="1">
                    <mxGeometry width="30" height="20" as="geometry"/>
                </mxCell>
                <mxCell id="8" value="username" style="shape=partialRectangle;connectable=0;fillColor=#008a00;top=0;left=0;bottom=0;right=0;align=left;spacingLeft=6;overflow=hidden;strokeColor=#005700;fontColor=#ffffff;" parent="6" vertex="1">
                    <mxGeometry x="30" width="110" height="20" as="geometry"/>
                </mxCell>
                <mxCell id="9" value="" style="shape=partialRectangle;collapsible=0;dropTarget=0;pointerEvents=0;fillColor=#008a00;top=0;left=0;bottom=0;right=0;points=[[0,0.5],[1,0.5]];portConstraint=eastwest;strokeColor=#005700;fontColor=#ffffff;" parent="2" vertex="1">
                    <mxGeometry y="70" width="140" height="20" as="geometry"/>
                </mxCell>
                <mxCell id="10" value="" style="shape=partialRectangle;connectable=0;fillColor=#008a00;top=0;left=0;bottom=0;right=0;editable=1;overflow=hidden;strokeColor=#005700;fontColor=#ffffff;" parent="9" vertex="1">
                    <mxGeometry width="30" height="20" as="geometry"/>
                </mxCell>
                <mxCell id="11" value="password" style="shape=partialRectangle;connectable=0;top=0;left=0;bottom=0;right=0;align=left;spacingLeft=6;overflow=hidden;fillColor=#008a00;strokeColor=#005700;fontColor=#ffffff;" parent="9" vertex="1">
                    <mxGeometry x="30" width="110" height="20" as="geometry"/>
                </mxCell>
                <mxCell id="12" value="" style="shape=partialRectangle;collapsible=0;dropTarget=0;pointerEvents=0;fillColor=#008a00;top=0;left=0;bottom=0;right=0;points=[[0,0.5],[1,0.5]];portConstraint=eastwest;strokeColor=#005700;fontColor=#ffffff;" parent="2" vertex="1">
                    <mxGeometry y="90" width="140" height="30" as="geometry"/>
                </mxCell>
                <mxCell id="13" value="" style="shape=partialRectangle;connectable=0;fillColor=#008a00;top=0;left=0;bottom=0;right=0;editable=1;overflow=hidden;strokeColor=#005700;fontColor=#ffffff;" parent="12" vertex="1">
                    <mxGeometry width="30" height="30" as="geometry"/>
                </mxCell>
                <mxCell id="14" value="email" style="shape=partialRectangle;connectable=0;fillColor=#008a00;top=0;left=0;bottom=0;right=0;align=left;spacingLeft=6;overflow=hidden;strokeColor=#005700;fontColor=#ffffff;" parent="12" vertex="1">
                    <mxGeometry x="30" width="110" height="30" as="geometry"/>
                </mxCell>
                <mxCell id="15" value="Messages" style="shape=table;startSize=30;container=1;collapsible=1;childLayout=tableLayout;fixedRows=1;rowLines=0;fontStyle=1;align=center;resizeLast=1;" parent="1" vertex="1">
                    <mxGeometry x="380" y="120" width="140" height="170" as="geometry"/>
                </mxCell>
                <mxCell id="16" value="" style="shape=partialRectangle;collapsible=0;dropTarget=0;pointerEvents=0;fillColor=#008a00;top=0;left=0;bottom=1;right=0;points=[[0,0.5],[1,0.5]];portConstraint=eastwest;strokeColor=#005700;fontColor=#ffffff;" parent="15" vertex="1">
                    <mxGeometry y="30" width="140" height="30" as="geometry"/>
                </mxCell>
                <mxCell id="17" value="PK" style="shape=partialRectangle;connectable=0;top=0;left=0;bottom=0;right=0;fontStyle=1;overflow=hidden;fillColor=#008a00;strokeColor=#005700;fontColor=#ffffff;" parent="16" vertex="1">
                    <mxGeometry width="50" height="30" as="geometry"/>
                </mxCell>
                <mxCell id="18" value="MessageId" style="shape=partialRectangle;connectable=0;fillColor=#008a00;top=0;left=0;bottom=0;right=0;align=left;spacingLeft=6;fontStyle=5;overflow=hidden;strokeColor=#005700;fontColor=#ffffff;" parent="16" vertex="1">
                    <mxGeometry x="50" width="90" height="30" as="geometry"/>
                </mxCell>
                <mxCell id="19" value="" style="shape=partialRectangle;collapsible=0;dropTarget=0;pointerEvents=0;fillColor=#008a00;top=0;left=0;bottom=0;right=0;points=[[0,0.5],[1,0.5]];portConstraint=eastwest;strokeColor=#005700;fontColor=#ffffff;" parent="15" vertex="1">
                    <mxGeometry y="60" width="140" height="20" as="geometry"/>
                </mxCell>
                <mxCell id="20" value="" style="shape=partialRectangle;connectable=0;top=0;left=0;bottom=0;right=0;editable=1;overflow=hidden;fillColor=#008a00;strokeColor=#005700;fontColor=#ffffff;" parent="19" vertex="1">
                    <mxGeometry width="50" height="20" as="geometry"/>
                </mxCell>
                <mxCell id="21" value="message" style="shape=partialRectangle;connectable=0;fillColor=#008a00;top=0;left=0;bottom=0;right=0;align=left;spacingLeft=6;overflow=hidden;strokeColor=#005700;fontColor=#ffffff;" parent="19" vertex="1">
                    <mxGeometry x="50" width="90" height="20" as="geometry"/>
                </mxCell>
                <mxCell id="22" value="" style="shape=partialRectangle;collapsible=0;dropTarget=0;pointerEvents=0;fillColor=#008a00;top=0;left=0;bottom=0;right=0;points=[[0,0.5],[1,0.5]];portConstraint=eastwest;strokeColor=#005700;fontColor=#ffffff;" parent="15" vertex="1">
                    <mxGeometry y="80" width="140" height="20" as="geometry"/>
                </mxCell>
                <mxCell id="23" value="" style="shape=partialRectangle;connectable=0;top=0;left=0;bottom=0;right=0;editable=1;overflow=hidden;fillColor=#008a00;strokeColor=#005700;fontColor=#ffffff;" parent="22" vertex="1">
                    <mxGeometry width="50" height="20" as="geometry"/>
                </mxCell>
                <mxCell id="24" value="sender" style="shape=partialRectangle;connectable=0;fillColor=#008a00;top=0;left=0;bottom=0;right=0;align=left;spacingLeft=6;overflow=hidden;strokeColor=#005700;fontColor=#ffffff;" parent="22" vertex="1">
                    <mxGeometry x="50" width="90" height="20" as="geometry"/>
                </mxCell>
                <mxCell id="25" value="" style="shape=partialRectangle;collapsible=0;dropTarget=0;pointerEvents=0;fillColor=#008a00;top=0;left=0;bottom=0;right=0;points=[[0,0.5],[1,0.5]];portConstraint=eastwest;strokeColor=#005700;fontColor=#ffffff;" parent="15" vertex="1">
                    <mxGeometry y="100" width="140" height="20" as="geometry"/>
                </mxCell>
                <mxCell id="26" value="" style="shape=partialRectangle;connectable=0;top=0;left=0;bottom=0;right=0;editable=1;overflow=hidden;fillColor=#008a00;strokeColor=#005700;fontColor=#ffffff;" parent="25" vertex="1">
                    <mxGeometry width="50" height="20" as="geometry"/>
                </mxCell>
                <mxCell id="27" value="to" style="shape=partialRectangle;connectable=0;fillColor=#008a00;top=0;left=0;bottom=0;right=0;align=left;spacingLeft=6;overflow=hidden;strokeColor=#005700;fontColor=#ffffff;" parent="25" vertex="1">
                    <mxGeometry x="50" width="90" height="20" as="geometry"/>
                </mxCell>
                <mxCell id="60" value="" style="shape=partialRectangle;collapsible=0;dropTarget=0;pointerEvents=0;fillColor=#008a00;top=0;left=0;bottom=0;right=0;points=[[0,0.5],[1,0.5]];portConstraint=eastwest;strokeColor=#005700;fontColor=#ffffff;" vertex="1" parent="15">
                    <mxGeometry y="120" width="140" height="20" as="geometry"/>
                </mxCell>
                <mxCell id="61" value="FK" style="shape=partialRectangle;connectable=0;top=0;left=0;bottom=0;right=0;editable=1;overflow=hidden;fillColor=#008a00;strokeColor=#005700;fontColor=#ffffff;" vertex="1" parent="60">
                    <mxGeometry width="50" height="20" as="geometry"/>
                </mxCell>
                <mxCell id="62" value="conversn_id" style="shape=partialRectangle;connectable=0;fillColor=#008a00;top=0;left=0;bottom=0;right=0;align=left;spacingLeft=6;overflow=hidden;strokeColor=#005700;fontColor=#ffffff;" vertex="1" parent="60">
                    <mxGeometry x="50" width="90" height="20" as="geometry"/>
                </mxCell>
                <mxCell id="28" value="Conversation" style="shape=table;startSize=30;container=1;collapsible=1;childLayout=tableLayout;fixedRows=1;rowLines=0;fontStyle=1;align=center;resizeLast=1;" parent="1" vertex="1">
                    <mxGeometry x="140" y="230" width="160" height="120" as="geometry"/>
                </mxCell>
                <mxCell id="29" value="" style="shape=partialRectangle;collapsible=0;dropTarget=0;pointerEvents=0;fillColor=#0050ef;top=0;left=0;bottom=1;right=0;points=[[0,0.5],[1,0.5]];portConstraint=eastwest;strokeColor=#001DBC;fontColor=#ffffff;" parent="28" vertex="1">
                    <mxGeometry y="30" width="160" height="30" as="geometry"/>
                </mxCell>
                <mxCell id="30" value="PK" style="shape=partialRectangle;connectable=0;fillColor=#0050ef;top=0;left=0;bottom=0;right=0;fontStyle=1;overflow=hidden;strokeColor=#001DBC;fontColor=#ffffff;" parent="29" vertex="1">
                    <mxGeometry width="30" height="30" as="geometry"/>
                </mxCell>
                <mxCell id="31" value="Id" style="shape=partialRectangle;connectable=0;fillColor=#0050ef;top=0;left=0;bottom=0;right=0;align=left;spacingLeft=6;fontStyle=5;overflow=hidden;strokeColor=#001DBC;fontColor=#ffffff;" parent="29" vertex="1">
                    <mxGeometry x="30" width="130" height="30" as="geometry"/>
                </mxCell>
                <mxCell id="32" value="" style="shape=partialRectangle;collapsible=0;dropTarget=0;pointerEvents=0;fillColor=#0050ef;top=0;left=0;bottom=0;right=0;points=[[0,0.5],[1,0.5]];portConstraint=eastwest;strokeColor=#001DBC;fontColor=#ffffff;" parent="28" vertex="1">
                    <mxGeometry y="60" width="160" height="30" as="geometry"/>
                </mxCell>
                <mxCell id="33" value="" style="shape=partialRectangle;connectable=0;fillColor=#0050ef;top=0;left=0;bottom=0;right=0;editable=1;overflow=hidden;strokeColor=#001DBC;fontColor=#ffffff;" parent="32" vertex="1">
                    <mxGeometry width="30" height="30" as="geometry"/>
                </mxCell>
                <mxCell id="34" value="conversations" style="shape=partialRectangle;connectable=0;fillColor=#0050ef;top=0;left=0;bottom=0;right=0;align=left;spacingLeft=6;overflow=hidden;strokeColor=#001DBC;fontColor=#ffffff;" parent="32" vertex="1">
                    <mxGeometry x="30" width="130" height="30" as="geometry"/>
                </mxCell>
                <mxCell id="41" value="" style="shape=partialRectangle;collapsible=0;dropTarget=0;pointerEvents=0;fillColor=#0050ef;top=0;left=0;bottom=0;right=0;points=[[0,0.5],[1,0.5]];portConstraint=eastwest;strokeColor=#001DBC;fontColor=#ffffff;" parent="28" vertex="1">
                    <mxGeometry y="90" width="160" height="30" as="geometry"/>
                </mxCell>
                <mxCell id="42" value="FK" style="shape=partialRectangle;connectable=0;fillColor=#0050ef;top=0;left=0;bottom=0;right=0;editable=1;overflow=hidden;strokeColor=#001DBC;fontColor=#ffffff;" parent="41" vertex="1">
                    <mxGeometry width="30" height="30" as="geometry"/>
                </mxCell>
                <mxCell id="43" value="User_id" style="shape=partialRectangle;connectable=0;fillColor=#0050ef;top=0;left=0;bottom=0;right=0;align=left;spacingLeft=6;overflow=hidden;strokeColor=#001DBC;fontColor=#ffffff;" parent="41" vertex="1">
                    <mxGeometry x="30" width="130" height="30" as="geometry"/>
                </mxCell>
                <mxCell id="48" value="" style="edgeStyle=entityRelationEdgeStyle;fontSize=12;html=1;endArrow=ERoneToMany;exitX=0.976;exitY=-0.137;exitDx=0;exitDy=0;exitPerimeter=0;" parent="1" source="12" edge="1">
                    <mxGeometry width="100" height="100" relative="1" as="geometry">
                        <mxPoint x="90" y="200" as="sourcePoint"/>
                        <mxPoint x="140" y="300" as="targetPoint"/>
                    </mxGeometry>
                </mxCell>
                <mxCell id="52" value="" style="edgeStyle=orthogonalEdgeStyle;fontSize=12;html=1;endArrow=ERone;endFill=1;entryX=0;entryY=0;entryDx=0;entryDy=0;entryPerimeter=0;" parent="1" target="16" edge="1">
                    <mxGeometry width="100" height="100" relative="1" as="geometry">
                        <mxPoint x="210" y="230" as="sourcePoint"/>
                        <mxPoint x="310" y="130" as="targetPoint"/>
                        <Array as="points">
                            <mxPoint x="210" y="150"/>
                            <mxPoint x="370" y="150"/>
                        </Array>
                    </mxGeometry>
                </mxCell>
                <mxCell id="64" value="" style="edgeStyle=orthogonalEdgeStyle;fontSize=12;html=1;endArrow=ERoneToMany;exitX=1;exitY=1;exitDx=0;exitDy=0;" edge="1" parent="1" source="28">
                    <mxGeometry width="100" height="100" relative="1" as="geometry">
                        <mxPoint x="330" y="360" as="sourcePoint"/>
                        <mxPoint x="380" y="280" as="targetPoint"/>
                        <Array as="points">
                            <mxPoint x="300" y="340"/>
                            <mxPoint x="340" y="340"/>
                            <mxPoint x="340" y="280"/>
                        </Array>
                    </mxGeometry>
                </mxCell>
            </root>
        </mxGraphModel>
    </diagram>
</mxfile>